<?xml version="1.0" standalone="no"?>
<!DOCTYPE svg PUBLIC "-//W3C//DTD SVG 1.1//EN" "http://www.w3.org/Graphics/SVG/1.1/DTD/svg11.dtd" >
<svg>
<metadata>
Created by FontForge 20090914 at Fri Feb 24 06:32:30 2012
 By root
By Jeff Rentsch 1994
</metadata>
<defs>
<font id="Glitch0" horiz-adv-x="500" >
  <font-face 
    font-family="Glitch0"
    font-weight="400"
    font-stretch="normal"
    units-per-em="1000"
    panose-1="0 0 0 0 0 0 0 0 0 0"
    ascent="800"
    descent="-200"
    x-height="462"
    cap-height="616"
    bbox="-77 -200 750 800"
    underline-thickness="20"
    underline-position="-123"
    unicode-range="U+0020-U+201D"
  />
<missing-glyph horiz-adv-x="800" 
d="M50 0v800h700v-800h-700zM700 50v700h-600v-700h600z" />
    <glyph glyph-name=".notdef" horiz-adv-x="800" 
d="M50 0v800h700v-800h-700zM700 50v700h-600v-700h600z" />
    <glyph glyph-name=".null" horiz-adv-x="0" 
 />
    <glyph glyph-name="nonmarkingreturn" 
 />
    <glyph glyph-name="space" unicode=" " 
 />
    <glyph glyph-name="exclam" unicode="!" horiz-adv-x="190" 
d="M115 154h-77v461h77v-461zM115 0h-77v77h77v-77z" />
    <glyph glyph-name="quotedbl" unicode="&#x22;" horiz-adv-x="304" 
d="M231 462h-77v154h77v-154zM115 462h-77v154h77v-154z" />
    <glyph glyph-name="numbersign" unicode="#" horiz-adv-x="538" 
d="M462 154h-77v-154h-77v154h-116v-154h-77v154h-77v77h77v154h-77v77h77v154h77v-154h116v154h77v-154h77v-77h-77v-154h77v-77zM192 385h116v-154h-116v154z" />
    <glyph glyph-name="dollar" unicode="$" 
d="M423 77h-38v-39h-39v-38h-77v-39h-77v39h-115v38h-39v77h77v-38h77v192h-38v39h-39v38h-38v38h-39v116h39v77h38v39h77v38h77v-38h116v-39h38v-77h-77v38l-77 1v-193h39v-38h38v-39h39v-38h38v-154zM192 384v154h-38v-37h-39v-77h39v-40h38zM346 115v77h-38v39h-39v-154
h39v39z" />
    <glyph glyph-name="percent" unicode="%" horiz-adv-x="576" 
d="M231 462h-39v-39h-115v39h-39v115h39v39h115v-39h39v-115zM423 462h-38v-77h-39v-77l-38 1v-78h-39v-77h-38v-77h-39v-77h-77v115h39v77h38v77h39v77h38v77h39v77h38v116h77v-154zM500 38h-38v-38h-116v38h-38v116h38v38h116v-38h38v-116zM154 500v39h-39v-39h39zM423 77
v38h-38v-38h38z" />
    <glyph glyph-name="ampersand" unicode="&#x26;" horiz-adv-x="576" 
d="M500 0h-77v38h-38v-38h-270v39h-38v38h-39v193h39v38h38v39h-38v38h-39v154h39v39h38v38h154v-39h39v-39h38v-153h-38v-39h-39v-38v-39h39v-38h38v-39h39v39h38v38h77v-77h-38v-38h-39v-39h39v-38h38v-77zM269 423v77h-38v38h-77l-1 -39l-38 1v-77h39v-38h77v38h38z
M346 77v38l-38 1v38h-39v38h-38v39h-39v38l-38 1v-39h-39v-115h39v-39h192z" />
    <glyph glyph-name="quotesingle" unicode="'" horiz-adv-x="190" 
d="M115 463h-77v154h77v-154z" />
    <glyph glyph-name="parenleft" unicode="(" horiz-adv-x="266" 
d="M192 -200h-77v39h-39v38h-38v778h38v38h39v39h77v-77h-39v-39h-38v-700h38v-39h39v-77z" />
    <glyph glyph-name="parenright" unicode=")" horiz-adv-x="266" 
d="M192 -123h-39v-38h-38v-39h-77v77h38v39h39v700h-39v39h-38v77h76l1 -39h38v-38h39v-778z" />
    <glyph glyph-name="asterisk" unicode="*" horiz-adv-x="422" 
d="M346 500h-39v-38h-38v-39h38v-77h-77v39h-77v-39h-77v77h39v39h-39v38h-38v77h77v-39h38v77h77v-77h39v39h77v-77z" />
    <glyph glyph-name="plus" unicode="+" horiz-adv-x="422" 
d="M346 269h-115v-115h-77v115h-116v77h116v116h77v-116h115v-77z" />
    <glyph glyph-name="comma" unicode="," horiz-adv-x="230" 
d="M154 -77h-39v38h-38v39h-39v77h77v-39h39v-115z" />
    <glyph glyph-name="hyphen" unicode="-" horiz-adv-x="461" 
d="M385 308h-347v77h347v-77z" />
    <glyph glyph-name="period" unicode="." horiz-adv-x="190" 
d="M115 0h-77v77h77v-77z" />
    <glyph glyph-name="slash" unicode="/" horiz-adv-x="422" 
d="M346 462h-38v-77h-39v-77l-38 1v-78h-39v-77h-38v-77h-39v-77h-77v115h39v77h38v77h39v77h38v77h39v77h38v116h77v-154z" />
    <glyph glyph-name="zero" unicode="0" 
d="M423 77h-38v-38h-39v-39h-231v39h-38v38h-39v462h39v39h38v38h231v-38h39v-39h38v-462zM346 116v385h-38v38h-154v-38h-39v-385h39v-39h154v39h38z" />
    <glyph glyph-name="one" unicode="1" horiz-adv-x="345" 
d="M269 0h-231v77h77v385h-77v77h38v38h39v39h77v-539h77v-77z" />
    <glyph glyph-name="two" unicode="2" 
d="M423 0h-385v154h38v39h39v38h38v39h39v38h38v39h39v38h38v38h39v77h-39v39h-154v-39h-38v-38h-77v78h38v37h39v39h231v-39h38v-38h39v-154h-39v-38h-38v-39h-39v-38h-38v-39h-39v-38h-38v-39h-39v-38h-38v-39h308v-77z" />
    <glyph glyph-name="three" unicode="3" horiz-adv-x="462" 
d="M384 77h-38v-38h-38v-39h-193v39h-38v38h-39v77h77v-38h39v-39h115v38h39v155h-39v38h-77v77h77v38h39v77h-39v39h-115v-39h-39v-38h-77v77h39v38h38v39h193v-39h38v-38h38v-154h-38v-77h38v-231z" />
    <glyph glyph-name="four" unicode="4" horiz-adv-x="462" 
d="M423 77h-39v-77h-77v77h-269v193h39v77h38v76h39v77h38v77h77v-115h-38v-77h-39v-77h-38v-77h-39v-77h192v462h77v-462h39v-77z" />
    <glyph glyph-name="five" unicode="5" 
d="M424 77h-38v-38h-77v-39h-232v39h-39v77h77v-39h194v39h39v154h-39v38h-271v308h386v-77h-309v-154h233v-38h38v-39h38v-231z" />
    <glyph glyph-name="six" unicode="6" 
d="M423 77h-39v-38h-77v-39h-192v39h-39v38h-38v462h39v39h38v38h231v-39h38v-38l1 -38h-39h-38v38h-154v-38h-39v-116h39v38h191v-38h39v-38h38zM346 116l-1 192h-38v39h-154v-39h-38v-192h38v-39h154v39h39z" />
    <glyph glyph-name="seven" unicode="7" 
d="M423 385h-39v-38h-38v-39h-39v-38h-38v-270h-77v308h38v39h39v38h38v39h39v115h-308v77h385v-231z" />
    <glyph glyph-name="eight" unicode="8" 
d="M423 77h-38v-38h-39v-39h-231v39h-38v38h-39v193h39v38h38v39h-38v38h-39v154h39v39h38v38h231v-38h39v-39h38v-154h-38v-38h-39v-39h39v-38h38v-193zM346 424v77h-38v38h-154v-38h-39v-77h39v-39h38v-38h77v38h39v39h38zM346 116v115h-38v39h-154v-39h-39v-115h39v-39
h154v39h38z" />
    <glyph glyph-name="nine" unicode="9" 
d="M423 77h-39v-38h-38v-39h-231v39h-38v77h76v-38l154 -1v39h39v115h-39v-38h-192v38h-38v39h-39v269h39v39h38v38h231v-38h38v-39h39v-462zM346 308v192l-39 1v38h-153v-38h-39v-192h39v-39h153v39z" />
    <glyph glyph-name="colon" unicode=":" horiz-adv-x="190" 
d="M115 192h-77v77h77v-77zM115 0h-77v77h77v-77z" />
    <glyph glyph-name="semicolon" unicode=";" horiz-adv-x="228" 
d="M115 192h-77v77h77v-77zM154 -77h-39v38h-38v39h-39v77h77v-39h39v-115z" />
    <glyph glyph-name="equal" unicode="=" horiz-adv-x="462" 
d="M385 385h-347v77h347v-77zM385 231h-347v77h347v-77z" />
    <glyph glyph-name="question" unicode="?" 
d="M423 384h-39v-38h-38v-39h-39v-38h-38v-115h-77v153h38v39h39v38h38v39h39v77h-39v38h-154v-38h-38v-38h-77v76h38v39h39v38h192h39v-38h38v-39h39v-154zM269 0h-77v77h77v-77z" />
    <glyph glyph-name="at" unicode="@" horiz-adv-x="768" 
d="M692 77h-39v-39h-38v-38h-154v38h-38v-38h-154v38h-39v39h-38v269h38v39h39v38h154v-38h38v38h77v-346h38v38h39v308h-39v39h-38v38h-308v-38h-39v-39h-38v-38h-39v-347h39v-38h38v-39h39v-38h423v-77h-462v38h-38v39h-39v38h-38v39h-38v423h38v39h38v38h39v39h38v38h385
v-38h39v-39h38v-38h39v-385zM461 115v193h-38v38h-116v-38h-38v-193h38v-38h116v38h38z" />
    <glyph glyph-name="A" unicode="A" 
d="M422 0h-77v231h-231v-231h-76v538h38v39h38v38h231v-38h38v-39h39v-538zM345 308v192h-38v38h-154v-38h-39v-192h231z" />
    <glyph glyph-name="B" unicode="B" 
d="M422 77h-38v-39h-39v-38h-307v615h307v-39h39v-38h38v-154h-38v-38h-39v-39h39v-38h38v-192zM345 422v77h-38v39h-192v-192h153v38h39v38h38zM345 115v115h-38v39h-192v-192h192v38h38z" />
    <glyph glyph-name="C" unicode="C" 
d="M422 39h-38v-39h-269v39h-39v38h-38v461h38v39h39v38h269v-38h38v-77h-77v38h-192v-38h-38v-384h38v-39h192v39h77v-77z" />
    <glyph glyph-name="D" unicode="D" 
d="M422 77h-38v-39h-38v-38h-308v614h308v-38h38v-38h38v-461zM346 115v384h-39v39h-192v-461h154v38h77z" />
    <glyph glyph-name="E" unicode="E" horiz-adv-x="460" 
d="M384 0h-346v615h346v-77h-269v-153h192v-77h-192v-231h269v-77z" />
    <glyph glyph-name="F" unicode="F" horiz-adv-x="460" 
d="M384 538h-269v-153h192v-77h-192v-308h-77v615h346v-77z" />
    <glyph glyph-name="G" unicode="G" 
d="M423 0h-308v39h-38v38h-39v462h39v38h38v39h269v-39h39v-77h-77v39h-192v-39h-39v-384h39v-39h192v154h-77v77h154v-308z" />
    <glyph glyph-name="H" unicode="H" horiz-adv-x="538" 
d="M461 0h-77v308h-269v-308h-77v616h77v-231h269v231h77v-616z" />
    <glyph glyph-name="I" unicode="I" 
d="M422 0h-384v77h153v462h-153v77h384v-77h-154v-462h154v-77z" />
    <glyph glyph-name="J" unicode="J" horiz-adv-x="461" 
d="M385 77h-39v-38h-38v-39h-193v39h-38v38h-39v77h77v-38h39v-39h115v39h39v500h77v-539z" />
    <glyph glyph-name="K" unicode="K" 
d="M423 0h-77v193h-39v38h-38v39h-39v38h-115v-308h-77v616h77v-231h77v38h38v39h39v38h38v39h39v77h77v-116h-39v-38h-38v-39h-39v-38h-38v-38h38v-39h39v-38h38v-39h39v-231z" />
    <glyph glyph-name="L" unicode="L" 
d="M422 0h-384v616h77v-539h307v-77z" />
    <glyph glyph-name="M" unicode="M" horiz-adv-x="576" 
d="M500 0h-77v462h-39v-39h-38v-38h-38v-77h-77v77h-39v38h-38v39h-43h4v-462h-77v615h77v-38h39v-39h38v-38h39v-38h77v38h38v38h38v39h39v38h77v-615z" />
    <glyph glyph-name="N" unicode="N" 
d="M423 0h-77v269h-38v38h-39v39h-38v38h-39v39h-38v38h-39v-461h-77v615h77v-39h39v-36h38v-39l39 -1v-39h38v-38h39v-39h38v231h77v-615z" />
    <glyph glyph-name="O" unicode="O" horiz-adv-x="576" 
d="M500 77h-39v-38h-38v-39h-308v39h-38v38h-39v462h39v38h38v39h308v-39h38v-38h39v-462zM423 116v384h-39v39h-230v-39h-39v-384h39v-39h230v39h39z" />
    <glyph glyph-name="P" unicode="P" 
d="M422 308l-38 1v-40h-39l1 -38h-231v-231h-77v616h308v-39h38v-38h38v-231zM346 347v153h-39v39h-192v-231h192v39h39z" />
    <glyph glyph-name="Q" unicode="Q" horiz-adv-x="576" 
d="M500 -77h-77v39h-39v38h-269v39h-38v38h-39v462h39v38h38v39h308v-39h38v-38h39v-462h-39v-77h39v-77zM423 116v384h-39v39h-230v-39h-39v-384h39v-39h153v77h77v-38h39z" />
    <glyph glyph-name="R" unicode="R" 
d="M423 0h-77v193h-39v38h-38v39h-154v-270h-77v616h308v-39h38v-38h39v-193h-39v-38h-38v-38h38v-39h39v-231zM346 385v115h-39v39h-192v-193h192v39h39z" />
    <glyph glyph-name="S" unicode="S" 
d="M423 77h-39v-38h-38v-39h-269v39h-39v77h77v-39h192v39h39v77h-39v38h-38v38h-116v39h-38v38h-38v39h-39v154h39v38h38v39h269v-39h39v-77h-77v39h-193v-39h-38v-77h38v-38h39v-39h115v-38h39v-39h38v-38h39v-154zM115 116h-77h77z" />
    <glyph glyph-name="T" unicode="T" 
d="M423 539h-154v-539h-77v539h-154v77h385v-77z" />
    <glyph glyph-name="U" unicode="U" 
d="M423 77h-39v-38h-38v-39h-231v39h-38v38h-39v539h77v-500h39v-39h153v39h39v500h77v-539z" />
    <glyph glyph-name="V" unicode="V" 
d="M423 154h-39v-38h-38v-39h-39v-38h-38v-39h-77v39h-38v38h-39v39h-38v38h-39v462h77v-423h39v-39h38v-38h77v38h38v39h39v423h77v-462z" />
    <glyph glyph-name="W" unicode="W" horiz-adv-x="576" 
d="M500 0h-77v39h-39v38h-38v39h-39v38h-76v-38h-39v-39h-38v-38h-39v-39h-77v616h77v-462h39l-2 39h40v38h39v77h76v-77h39v-38h38v-39h39v462h77v-616z" />
    <glyph glyph-name="X" unicode="X" 
d="M422 0h-77v154h-38v39h-39v38h-76v-38h-39v-39h-38v-154h-77v193h38v38h39v38l38 1v38h39v39h-39v38h-38v38h-39v39h-38v154h77v-116h38v-38h39v-39h76v39h39v38h38v116h77v-154h-38v-39h-39v-38h-38v-38h-39v-39h39v-38l38 -1v-38h39v-38h38v-193z" />
    <glyph glyph-name="Y" unicode="Y" 
d="M422 385h-38v-38h-38v-39h-39v-38h-38v-270h-77v270h-39v38h-38v39h-39v38h-38v231h77v-193h38v-38h39v-38h77v38h38v38h39v193h76v-231z" />
    <glyph glyph-name="Z" unicode="Z" 
d="M423 0h-385v193h38v38h39v39h38v38h39v39h38v38h39v38h38v39h39v77h-308v77h385v-193h-39v-38h-38v-38h-39v-39h-38v-38h-39v-39h-38v-38h-39v-39h-38v-77h308v-77z" />
    <glyph glyph-name="bracketleft" unicode="[" horiz-adv-x="268" 
d="M192 -200h-154v932h154v-77h-77v-778h77v-77z" />
    <glyph glyph-name="backslash" unicode="\" horiz-adv-x="422" 
d="M346 0h-77v77h-39v115h-38v39h-39v78l-38 -1v77h-39v77h-38v154h77v-116h38v-77h39v-77h38v-77h39v-77h38v-77h39v-115z" />
    <glyph glyph-name="bracketright" unicode="]" horiz-adv-x="268" 
d="M192 -200h-154v77h77v778h-77v77h154v-932z" />
    <glyph glyph-name="underscore" unicode="_" horiz-adv-x="529" 
d="M534 -154h-539v76h539v-76z" />
    <glyph glyph-name="a" unicode="a" horiz-adv-x="462" 
d="M384 0h-77v38h-38v-38h-154v38h-38v39h-39v115h39v39h38v38h154v-38h38l-1 115h-37v38h-115v-38h-39v-39h-77v77h39v39h38v38h192v-39h39v-38h38v-384zM307 115v39h-38v38h-115v-38h-39v-39h39v-38h115v38h38z" />
    <glyph glyph-name="b" unicode="b" horiz-adv-x="462" 
d="M384 77h-38v-39h-39v-38h-153v38h-39v-38h-77v615h77v-192h39v38h153v-38h39v-39h38v-307zM307 115v231h-38v38h-115v-38h-39v-231h39v-38h115v38h38z" />
    <glyph glyph-name="c" unicode="c" horiz-adv-x="462" 
d="M384 77h-39v-39h-39v-38h-191v38h-39v39h-38v307h38v39h39v38h192v-38h38v-39h39v-77h-77v39h-39v38h-115v-38h-38v-231h38v-38h115v38h39v39h77v-77z" />
    <glyph glyph-name="d" unicode="d" horiz-adv-x="462" 
d="M384 0h-77v39h-39v-39h-153v39h-39v38h-38v308h38v39h39v38h153v-38h39v192h77v-616zM307 116v231h-39v38h-115v-38h-38v-231h38v-39h115v39h39z" />
    <glyph glyph-name="e" unicode="e" horiz-adv-x="462" 
d="M384 77h-39v-38h-38v-39h-192v39h-39v38h-38v308l38 2v37h38l1 38h192v-38h38v-39h39v-192h-270v-77h39v-39h115v39h39v38h77v-77zM307 270v77h-39v38h-115v-36h-39v-79h193z" />
    <glyph glyph-name="f" unicode="f" horiz-adv-x="424" 
d="M385 462h-77v38h-39v39h-115v-39h-39v-154h116v-77h-116v-269h-77v269h-38v77h38v193h39v38h38v39h193v-39h38v-38h39v-77z" />
    <glyph glyph-name="g" unicode="g" horiz-adv-x="462" 
d="M384 -123h-39v-39h-38v-38h-192v38l-38 1v38h-39v77h77v-39h38v-38h115v38h39v123h-38v-38h-154v38h-38v38h-39v308h39v38h38v39h154v-39h38v39h77v-584zM307 115v230h-38v39h-115v-39h-39v-230h39v-39h115v39h38z" />
    <glyph glyph-name="h" unicode="h" horiz-adv-x="462" 
d="M385 0h-77v346h-38v39h-116v-39h-38v-346h-77v616h77v-193h38v39h154v-39h38v-38h39v-385z" />
    <glyph glyph-name="i" unicode="i" horiz-adv-x="190" 
d="M115 538h-77v77h77v-77zM115 0h-77v461h77v-461z" />
    <glyph glyph-name="j" unicode="j" horiz-adv-x="190" 
d="M114 577h-76v77h76v-77zM114 -123h-38v-39h-38v-38h-115v77h77v38h38v585h76v-623z" />
    <glyph glyph-name="k" unicode="k" horiz-adv-x="462" 
d="M385 0h-77v154h-39v39h-38v38h-116v-231h-77v616h77v-308h77v39h39v38h38v77h77v-115h-38v-39h-39v-38h39v-39h38v-38h39v-193z" />
    <glyph glyph-name="l" unicode="l" horiz-adv-x="190" 
d="M115 0h-77v616h77v-616z" />
    <glyph glyph-name="m" unicode="m" 
d="M422 0h-77v308h-38v38h-39v-346h-77v308h-38v38h-38v-346h-77v461h77v-38h38v38h77v-38h38v38h77v-38h39l-1 -39h39v-384z" />
    <glyph glyph-name="n" unicode="n" horiz-adv-x="462" 
d="M384 0h-77v346h-39v38h-115v-38h-38v-346h-77v461h77v-38h38v38h154v-38h38v-39h39v-384z" />
    <glyph glyph-name="o" unicode="o" horiz-adv-x="462" 
d="M384 77h-38v-38h-39v-39h-192v39h-39v38h-38v308h38v39h39v38h192v-38h39v-39h38v-308zM307 116v231h-38v38h-116v-38h-38v-231h38v-39h116v39h38z" />
    <glyph glyph-name="p" unicode="p" horiz-adv-x="462" 
d="M384 77h-38v-39h-39v-38h-153v38h-39v-238h-77v661h77v-38h39v38h153v-38h39v-39h38v-307zM307 115v231h-38v38h-115v-38h-39v-231h39v-38h115v38h38z" />
    <glyph glyph-name="q" unicode="q" horiz-adv-x="462" 
d="M384 -200h-76v238h-39v-38h-154v38h-38v39h-39v307h39v39h38v38h154v-38h39v38h76v-661zM308 115v231h-39v38h-115v-38h-39v-231h39v-38h115v38h39z" />
    <glyph glyph-name="r" unicode="r" horiz-adv-x="424" 
d="M384 346h-77v38h-154v-38h-38v-346h-77v461h77v-38h38v38h192v-38h39v-77z" />
    <glyph glyph-name="s" unicode="s" horiz-adv-x="462" 
d="M384 38h-39v-38h-269v38h-38v77h76v-38h193v77h-39v38h-154v39h-38v38h-38v154h38v38h269v-38h39v-77h-77v38h-193v-76h39v-39h154v-38h38v-39h39v-154z" />
    <glyph glyph-name="t" unicode="t" horiz-adv-x="266" 
d="M192 0h-115v38h-39v346h-38v77h38v77h77v-77h77v-77h-77v-307h77v-77z" />
    <glyph glyph-name="u" unicode="u" horiz-adv-x="462" 
d="M384 0h-77v39h-38v-39h-154v39h-39v38h-38v385h77v-346h38v-39h116v39h38v346h77v-462z" />
    <glyph glyph-name="v" unicode="v" horiz-adv-x="462" 
d="M384 116h-39v-39h-38v-38h-39v-39h-115v39h-39v38h-38v39h-38v346h76v-308h39v-38h38v-39h39v39h38v38h39v308h77v-346z" />
    <glyph glyph-name="w" unicode="w" 
d="M423 0h-77v39h-38v-39h-77v39h-39v-39h-77v39h-38v38h-39v385h77v-308h39v-38h38v346h77v-308h39v-38h38v346h77v-462z" />
    <glyph glyph-name="x" unicode="x" 
d="M423 0h-77v77h-38v39h-39v38h-77v-38h-38v-39h-39v-77h-77v116h39v38h38v39h39v38h38v39h-38v38h-39v39h-38v38h-39v77h77v-39h39v-38h38v-38h77v38h39v38h38v39h77v-77h-38v-38h-39v-39h-38v-38h-39v-39h39v-38h38v-39h39v-38h38v-116z" />
    <glyph glyph-name="y" unicode="y" horiz-adv-x="462" 
d="M385 -123h-39v-39h-38v-38h-193v38h-38v39h-39v77h77v-39h39v-38h115v38h39v124h-39v-39h-154v39h-38v38h-39v385h77v-346h39v-39h115v39h39v346h77v-585z" />
    <glyph glyph-name="z" unicode="z" horiz-adv-x="462" 
d="M384 0h-346v154h38v39h38v38h39v38l77 1v38h38v39h39v38h-269v77h346v-154h-39v-38h-38v-39h-39v-38h-77v-39h-38v-38h-39v-39h270v-77z" />
    <glyph glyph-name="quoteleft" unicode="&#x2018;" horiz-adv-x="230" 
d="M154 539h-39v-38h-38v-39h-39v116h39v39h77v-78z" />
    <glyph glyph-name="quoteright" unicode="&#x2019;" horiz-adv-x="230" 
d="M153 462h-38v39h-39v38h-38v78h77v-39h38v-116z" />
    <glyph glyph-name="quotedblleft" unicode="&#x201c;" horiz-adv-x="384" 
d="M307 539h-38v-39h-39v-38h-38v115h38v39h77v-77zM154 538h-39v-38h-38v-39h-39v116h39v39h77v-78z" />
    <glyph glyph-name="quotedblright" unicode="&#x201d;" horiz-adv-x="384" 
d="M307 463h-38v38h-39v39h-38v77h77v-39h38v-115zM153 462h-38v39h-39v38h-38v78h77v-39h38v-116z" />
  </font>
</defs>
</svg>
